<svg xmlns="http://www.w3.org/2000/svg" viewBox="0 0 64 64"><defs><style>.cls-1{fill:#0072ff;}</style></defs><title>Rotate Screen</title><g id="Layer_2" data-name="Layer 2"><path class="cls-1" d="M23.59,4A7.59,7.59,0,0,0,16,11.59V52.41A7.59,7.59,0,0,0,23.59,60H40.41A7.59,7.59,0,0,0,48,52.41V11.59A7.59,7.59,0,0,0,40.41,4ZM41.84,33.79A10,10,0,0,1,22,31.31,10.24,10.24,0,0,1,32.35,22H38.7a1.37,1.37,0,0,1,1,2.33l-4.53,4.53A1.84,1.84,0,0,1,32,27.56v-.74a.76.76,0,0,0-.87-.76,6,6,0,1,0,6.55,7.86A2.94,2.94,0,0,1,40.19,32h0A1.52,1.52,0,0,1,41.84,33.79Z"/></g></svg>